<svg width="24" height="24" viewBox="0 0 24 24" fill="none" xmlns="http://www.w3.org/2000/svg">
<g clip-path="url(#clip0_72_1959)">
<path d="M17.625 22H6.375C3.95875 22 2 20.0413 2 17.625V6.375C2 3.95875 3.95875 2 6.375 2H17.625C20.0413 2 22 3.95875 22 6.375V17.625C22 20.0413 20.0413 22 17.625 22Z" fill="#41479B"/>
<path d="M22 17.6246V16.6642L18.8977 14.6316H22V13.579H13.579V22H14.6316V15.6118L21.3086 19.9864C21.5451 19.6182 21.7277 19.2121 21.8457 18.7795" fill="#F5F5F5"/>
<path d="M2.29418 19.2048C2.40074 19.4798 2.5341 19.7415 2.69137 19.9864L9.3684 15.6118V22H10.421V13.579H2V14.6316H5.1023L2 16.6642V17.625C2 17.7932 2.00984 17.9591 2.02832 18.1224" fill="#F5F5F5"/>
<path d="M2 6.52371V7.33586L5.1023 9.36844H2V10.4211H10.4211V2H9.36844V8.38828L2.69137 4.01367C2.43187 4.4177 2.23723 4.86727 2.12164 5.34766" fill="#F5F5F5"/>
<path d="M21.7001 4.78004C21.5945 4.51055 21.463 4.25402 21.3086 4.01363L14.6316 8.38828V2H13.579V10.4211H22V9.36844H18.8977L22 7.33586V6.375C22 6.20078 21.9895 6.02898 21.9697 5.86008" fill="#F5F5F5"/>
<path d="M13.5789 2H10.4211V10.4211H2V13.5789H10.4211V22H13.5789V13.5789H22V10.4211H13.5789V2Z" fill="#FF4B55"/>
<path d="M7.40605 14.6316L2.02832 18.1224C2.07105 18.4999 2.16168 18.8628 2.29422 19.2048L9.33949 14.6316H7.40605V14.6316Z" fill="#FF4B55"/>
<path d="M15.4557 14.6316L21.8458 18.7795C21.9461 18.4117 22 18.0247 22 17.625V17.6246L17.3891 14.6316L15.4557 14.6316Z" fill="#FF4B55"/>
<path d="M8.31578 9.36844L2.12164 5.34766C2.0423 5.67719 2 6.02113 2 6.375V6.52371L6.38234 9.36844H8.31578Z" fill="#FF4B55"/>
<path d="M16.565 9.36839L21.9697 5.86003C21.9255 5.48331 21.8337 5.1212 21.7001 4.78003L14.6316 9.36839H16.565Z" fill="#FF4B55"/>
</g>
<defs>
<clipPath id="clip0_72_1959">
<rect width="20" height="20" fill="white" transform="translate(2 2)"/>
</clipPath>
</defs>
</svg>
