<svg width="24" height="24" viewBox="0 0 24 24" fill="none" xmlns="http://www.w3.org/2000/svg">
<g clip-path="url(#clip0_1457_6140)">
<path d="M17.625 2H6.375C3.95875 2 2 3.95875 2 6.375V8.66668H22V6.375C22 3.95875 20.0413 2 17.625 2Z" fill="#82AFFF"/>
<path d="M2 17.6251C2 20.0413 3.95875 22.0001 6.375 22.0001H17.625C20.0413 22.0001 22 20.0413 22 17.6251V15.3334H2V17.6251Z" fill="#73AF00"/>
<path d="M22 8.66675H2V15.3335H22V8.66675Z" fill="#F5F5F5"/>
<path d="M22 8.07458H2V8.90587H22V8.07458Z" fill="#FF4B55"/>
<path d="M22 15.0941H2V15.9254H22V15.0941Z" fill="#FF4B55"/>
<path d="M6.7338 6.99597C5.6563 6.99597 4.78294 6.12464 4.78294 5.05101C4.78294 3.97343 5.6563 3.09823 6.7338 3.09823C6.73791 3.09823 6.74201 3.09827 6.74611 3.09831C6.80951 3.09917 6.83177 3.01487 6.77587 2.98491C6.44408 2.8071 6.06541 2.70644 5.66283 2.70929C4.37357 2.71851 3.32634 3.78687 3.33998 5.07608C3.35349 6.35206 4.39662 7.38487 5.67962 7.38487C6.07669 7.38487 6.45001 7.28444 6.77763 7.10905C6.83337 7.07921 6.81084 6.99487 6.74763 6.99585C6.74302 6.99593 6.73841 6.99597 6.7338 6.99597Z" fill="#F5F5F5"/>
<path d="M8.26137 6.45811L8.17422 6.71936L7.89883 6.72151C7.86316 6.72178 7.8484 6.76729 7.87707 6.78846L8.09863 6.95206L8.01555 7.21463C8.0048 7.24862 8.04351 7.27674 8.0725 7.256L8.29656 7.09584L8.52062 7.256C8.54965 7.27674 8.58836 7.24862 8.57758 7.21463L8.49449 6.95206L8.71601 6.78846C8.74469 6.76729 8.72992 6.72178 8.69426 6.72151L8.41887 6.71936L8.33172 6.45811C8.32051 6.42428 8.27266 6.42428 8.26137 6.45811Z" fill="#F5F5F5"/>
<path d="M9.7822 6.45811L9.69509 6.71936L9.4197 6.72151C9.38404 6.72178 9.36927 6.76729 9.39794 6.78846L9.61951 6.95206L9.53642 7.21463C9.52568 7.24862 9.56435 7.27674 9.59337 7.256L9.81744 7.09584L10.0415 7.256C10.0705 7.27674 10.1092 7.24862 10.0985 7.21463L10.0154 6.95206L10.2369 6.78846C10.2656 6.76729 10.2508 6.72178 10.2152 6.72151L9.93978 6.71936L9.85263 6.45811C9.84134 6.42428 9.79349 6.42428 9.7822 6.45811Z" fill="#F5F5F5"/>
<path d="M12.8681 6.45811L12.781 6.71936L12.5056 6.72151C12.47 6.72178 12.4552 6.76729 12.4839 6.78846L12.7054 6.95206L12.6224 7.21463C12.6116 7.24862 12.6503 7.27674 12.6793 7.256L12.9034 7.09584L13.1274 7.256C13.1565 7.27674 13.1951 7.24862 13.1844 7.21463L13.1013 6.95206L13.3229 6.78846C13.3515 6.76729 13.3368 6.72178 13.3011 6.72151L13.0257 6.71936L12.9386 6.45811C12.9273 6.42428 12.8794 6.42428 12.8681 6.45811Z" fill="#F5F5F5"/>
<path d="M14.3817 6.45811L14.2946 6.71936L14.0192 6.72151C13.9835 6.72178 13.9688 6.76729 13.9974 6.78846L14.219 6.95206L14.1359 7.21463C14.1252 7.24862 14.1639 7.27674 14.1929 7.256L14.4169 7.09584L14.641 7.256C14.67 7.27674 14.7087 7.24862 14.6979 7.21463L14.6149 6.95206L14.8364 6.78846C14.8651 6.76729 14.8503 6.72178 14.8147 6.72151L14.5393 6.71936L14.4521 6.45811C14.4408 6.42428 14.393 6.42428 14.3817 6.45811Z" fill="#F5F5F5"/>
<path d="M9.7822 4.64719L9.69509 4.90844L9.4197 4.91059C9.38404 4.91086 9.36927 4.95637 9.39794 4.97754L9.61951 5.14114L9.53642 5.40372C9.52568 5.4377 9.56435 5.46583 9.59337 5.44512L9.81744 5.28497L10.0415 5.44512C10.0705 5.46586 10.1092 5.43774 10.0985 5.40376L10.0154 5.14118L10.2369 4.97758C10.2656 4.95641 10.2508 4.9109 10.2152 4.91063L9.93978 4.90848L9.85263 4.64723C9.84134 4.61336 9.79349 4.61336 9.7822 4.64719Z" fill="#F5F5F5"/>
<path d="M11.3349 4.64719L11.2477 4.90844L10.9723 4.91059C10.9366 4.91086 10.9219 4.95637 10.9506 4.97754L11.1721 5.14114L11.089 5.40372C11.0783 5.4377 11.117 5.46583 11.146 5.44512L11.37 5.28497L11.5941 5.44512C11.6231 5.46586 11.6618 5.43774 11.6511 5.40376L11.568 5.14118L11.7895 4.97758C11.8182 4.95641 11.8034 4.9109 11.7678 4.91063L11.4924 4.90848L11.4052 4.64723C11.394 4.61336 11.3461 4.61336 11.3349 4.64719Z" fill="#F5F5F5"/>
<path d="M12.8681 4.64719L12.781 4.90844L12.5056 4.91059C12.47 4.91086 12.4552 4.95637 12.4839 4.97754L12.7054 5.14114L12.6224 5.40372C12.6116 5.4377 12.6503 5.46583 12.6793 5.44512L12.9034 5.28497L13.1274 5.44512C13.1565 5.46586 13.1951 5.43774 13.1844 5.40376L13.1013 5.14118L13.3229 4.97758C13.3515 4.95641 13.3368 4.9109 13.3011 4.91063L13.0257 4.90848L12.9386 4.64723C12.9273 4.61336 12.8794 4.61336 12.8681 4.64719Z" fill="#F5F5F5"/>
<path d="M14.3817 4.64719L14.2946 4.90844L14.0192 4.91059C13.9835 4.91086 13.9688 4.95637 13.9974 4.97754L14.219 5.14114L14.1359 5.40372C14.1252 5.4377 14.1639 5.46583 14.1929 5.44512L14.4169 5.28497L14.641 5.44512C14.67 5.46586 14.7087 5.43774 14.6979 5.40376L14.6149 5.14118L14.8364 4.97758C14.8651 4.95641 14.8503 4.9109 14.8147 4.91063L14.5393 4.90848L14.4521 4.64723C14.4408 4.61336 14.393 4.61336 14.3817 4.64719Z" fill="#F5F5F5"/>
<path d="M11.3349 6.45811L11.2477 6.71936L10.9723 6.72151C10.9366 6.72178 10.9219 6.76729 10.9506 6.78846L11.1721 6.95206L11.089 7.21463C11.0783 7.24862 11.117 7.27674 11.146 7.256L11.37 7.09584L11.5941 7.256C11.6231 7.27674 11.6618 7.24862 11.6511 7.21463L11.568 6.95206L11.7895 6.78846C11.8182 6.76729 11.8034 6.72178 11.7678 6.72151L11.4924 6.71936L11.4052 6.45811C11.394 6.42428 11.3461 6.42428 11.3349 6.45811Z" fill="#F5F5F5"/>
<path d="M11.3349 2.83641L11.2477 3.09766L10.9723 3.0998C10.9366 3.10008 10.9219 3.14559 10.9506 3.16676L11.1721 3.33035L11.089 3.59293C11.0783 3.62691 11.117 3.65504 11.146 3.6343L11.37 3.47414L11.5941 3.6343C11.6231 3.65504 11.6618 3.62691 11.6511 3.59293L11.568 3.33035L11.7895 3.16676C11.8182 3.14559 11.8034 3.10008 11.7678 3.0998L11.4924 3.09766L11.4052 2.83641C11.394 2.80258 11.3461 2.80258 11.3349 2.83641Z" fill="#F5F5F5"/>
<path d="M12.8681 6.45811L12.781 6.71936L12.5056 6.72151C12.47 6.72178 12.4552 6.76729 12.4839 6.78846L12.7054 6.95206L12.6224 7.21463C12.6116 7.24862 12.6503 7.27674 12.6793 7.256L12.9034 7.09584L13.1274 7.256C13.1565 7.27674 13.1951 7.24862 13.1844 7.21463L13.1013 6.95206L13.3229 6.78846C13.3515 6.76729 13.3368 6.72178 13.3011 6.72151L13.0257 6.71936L12.9386 6.45811C12.9273 6.42428 12.8794 6.42428 12.8681 6.45811Z" fill="#F5F5F5"/>
<path d="M14.3817 6.45811L14.2946 6.71936L14.0192 6.72151C13.9835 6.72178 13.9688 6.76729 13.9974 6.78846L14.219 6.95206L14.1359 7.21463C14.1252 7.24862 14.1639 7.27674 14.1929 7.256L14.4169 7.09584L14.641 7.256C14.67 7.27674 14.7087 7.24862 14.6979 7.21463L14.6149 6.95206L14.8364 6.78846C14.8651 6.76729 14.8503 6.72178 14.8147 6.72151L14.5393 6.71936L14.4521 6.45811C14.4408 6.42428 14.393 6.42428 14.3817 6.45811Z" fill="#F5F5F5"/>
<path d="M12.8681 2.83641L12.781 3.09766L12.5056 3.0998C12.47 3.10008 12.4552 3.14559 12.4839 3.16676L12.7054 3.33035L12.6224 3.59293C12.6116 3.62691 12.6503 3.65504 12.6793 3.6343L12.9034 3.47414L13.1274 3.6343C13.1565 3.65504 13.1951 3.62691 13.1844 3.59293L13.1013 3.33035L13.3229 3.16676C13.3515 3.14559 13.3368 3.10008 13.3011 3.0998L13.0257 3.09766L12.9386 2.83641C12.9273 2.80258 12.8794 2.80258 12.8681 2.83641Z" fill="#F5F5F5"/>
<path d="M14.3817 2.83641L14.2946 3.09766L14.0192 3.0998C13.9835 3.10008 13.9688 3.14559 13.9974 3.16676L14.219 3.33035L14.1359 3.59293C14.1252 3.62691 14.1639 3.65504 14.1929 3.6343L14.4169 3.47414L14.641 3.6343C14.67 3.65504 14.7087 3.62691 14.6979 3.59293L14.6149 3.33035L14.8364 3.16676C14.8651 3.14559 14.8503 3.10008 14.8147 3.0998L14.5393 3.09766L14.4521 2.83641C14.4408 2.80258 14.393 2.80258 14.3817 2.83641Z" fill="#F5F5F5"/>
</g>
<defs>
<clipPath id="clip0_1457_6140">
<rect width="20" height="20" fill="white" transform="translate(2 2)"/>
</clipPath>
</defs>
</svg>
